<svg width="60" height="61" viewBox="0 0 60 61" fill="none" xmlns="http://www.w3.org/2000/svg">
<circle cx="30" cy="30.701" r="30" fill="#730DA4" fill-opacity="0.2"/>
<path d="M25.025 37.951L30.25 40.8011V44.201H21.5C20.1125 44.201 19 43.0885 19 41.701V21.701C19 21.038 19.2634 20.4021 19.7322 19.9333C20.2011 19.4644 20.837 19.201 21.5 19.201H22.75V27.951L25.875 26.076L29 27.951V19.201H36.5C37.163 19.201 37.7989 19.4644 38.2678 19.9333C38.7366 20.4021 39 21.038 39 21.701V32.376L37.125 31.3511L25.025 37.951ZM44 37.951L37.125 34.201L30.25 37.951L37.125 41.701L44 37.951ZM32.75 40.5635V43.0635L37.125 45.451L41.5 43.0635V40.5635L37.125 42.951L32.75 40.5635Z" fill="#730DA4"/>
</svg>
