<svg width="331" height="85" viewBox="0 0 331 85" fill="none" xmlns="http://www.w3.org/2000/svg">
<rect y="0.321533" width="331" height="84.0804" rx="31.9293" fill="#ECE8E8"/>
<path d="M107.1 38.9618C106.713 38.1485 106.153 37.5218 105.42 37.0818C104.687 36.6285 103.833 36.4018 102.86 36.4018C101.887 36.4018 101.007 36.6285 100.22 37.0818C99.4467 37.5218 98.8333 38.1618 98.38 39.0018C97.94 39.8285 97.72 40.7885 97.72 41.8818C97.72 42.9751 97.94 43.9351 98.38 44.7618C98.8333 45.5885 99.4467 46.2285 100.22 46.6818C101.007 47.1218 101.887 47.3418 102.86 47.3418C104.22 47.3418 105.34 46.9351 106.22 46.1218C107.1 45.3085 107.613 44.2085 107.76 42.8218H102.2V41.3418H109.7V42.7418C109.593 43.8885 109.233 44.9418 108.62 45.9018C108.007 46.8485 107.2 47.6018 106.2 48.1618C105.2 48.7085 104.087 48.9818 102.86 48.9818C101.567 48.9818 100.387 48.6818 99.32 48.0818C98.2533 47.4685 97.4067 46.6218 96.78 45.5418C96.1667 44.4618 95.86 43.2418 95.86 41.8818C95.86 40.5218 96.1667 39.3018 96.78 38.2218C97.4067 37.1285 98.2533 36.2818 99.32 35.6818C100.387 35.0685 101.567 34.7618 102.86 34.7618C104.34 34.7618 105.647 35.1285 106.78 35.8618C107.927 36.5951 108.76 37.6285 109.28 38.9618H107.1ZM121.386 37.9018V48.8618H119.566V47.2418C119.22 47.8018 118.733 48.2418 118.106 48.5618C117.493 48.8685 116.813 49.0218 116.066 49.0218C115.213 49.0218 114.446 48.8485 113.766 48.5018C113.086 48.1418 112.546 47.6085 112.146 46.9018C111.76 46.1951 111.566 45.3351 111.566 44.3218V37.9018H113.366V44.0818C113.366 45.1618 113.64 45.9951 114.186 46.5818C114.733 47.1551 115.48 47.4418 116.426 47.4418C117.4 47.4418 118.166 47.1418 118.726 46.5418C119.286 45.9418 119.566 45.0685 119.566 43.9218V37.9018H121.386ZM124.959 36.1218C124.613 36.1218 124.319 36.0018 124.079 35.7618C123.839 35.5218 123.719 35.2285 123.719 34.8818C123.719 34.5351 123.839 34.2418 124.079 34.0018C124.319 33.7618 124.613 33.6418 124.959 33.6418C125.293 33.6418 125.573 33.7618 125.799 34.0018C126.039 34.2418 126.159 34.5351 126.159 34.8818C126.159 35.2285 126.039 35.5218 125.799 35.7618C125.573 36.0018 125.293 36.1218 124.959 36.1218ZM125.839 37.9018V48.8618H124.019V37.9018H125.839ZM130.721 39.4018V45.8618C130.721 46.3951 130.835 46.7751 131.061 47.0018C131.288 47.2151 131.681 47.3218 132.241 47.3218H133.581V48.8618H131.941C130.928 48.8618 130.168 48.6285 129.661 48.1618C129.155 47.6951 128.901 46.9285 128.901 45.8618V39.4018H127.481V37.9018H128.901V35.1418H130.721V37.9018H133.581V39.4018H130.721ZM134.666 43.3418C134.666 42.2218 134.893 41.2418 135.346 40.4018C135.8 39.5485 136.42 38.8885 137.206 38.4218C138.006 37.9551 138.893 37.7218 139.866 37.7218C140.826 37.7218 141.66 37.9285 142.366 38.3418C143.073 38.7551 143.6 39.2751 143.946 39.9018V37.9018H145.786V48.8618H143.946V46.8218C143.586 47.4618 143.046 47.9951 142.326 48.4218C141.62 48.8351 140.793 49.0418 139.846 49.0418C138.873 49.0418 137.993 48.8018 137.206 48.3218C136.42 47.8418 135.8 47.1685 135.346 46.3018C134.893 45.4351 134.666 44.4485 134.666 43.3418ZM143.946 43.3618C143.946 42.5351 143.78 41.8151 143.446 41.2018C143.113 40.5885 142.66 40.1218 142.086 39.8018C141.526 39.4685 140.906 39.3018 140.226 39.3018C139.546 39.3018 138.926 39.4618 138.366 39.7818C137.806 40.1018 137.36 40.5685 137.026 41.1818C136.693 41.7951 136.526 42.5151 136.526 43.3418C136.526 44.1818 136.693 44.9151 137.026 45.5418C137.36 46.1551 137.806 46.6285 138.366 46.9618C138.926 47.2818 139.546 47.4418 140.226 47.4418C140.906 47.4418 141.526 47.2818 142.086 46.9618C142.66 46.6285 143.113 46.1551 143.446 45.5418C143.78 44.9151 143.946 44.1885 143.946 43.3618ZM150.242 39.6818C150.562 39.0551 151.015 38.5685 151.602 38.2218C152.202 37.8751 152.929 37.7018 153.782 37.7018V39.5818H153.302C151.262 39.5818 150.242 40.6885 150.242 42.9018V48.8618H148.422V37.9018H150.242V39.6818ZM156.383 36.1218C156.036 36.1218 155.743 36.0018 155.503 35.7618C155.263 35.5218 155.143 35.2285 155.143 34.8818C155.143 34.5351 155.263 34.2418 155.503 34.0018C155.743 33.7618 156.036 33.6418 156.383 33.6418C156.716 33.6418 156.996 33.7618 157.223 34.0018C157.463 34.2418 157.583 34.5351 157.583 34.8818C157.583 35.2285 157.463 35.5218 157.223 35.7618C156.996 36.0018 156.716 36.1218 156.383 36.1218ZM157.263 37.9018V48.8618H155.443V37.9018H157.263ZM163.805 49.0418C162.965 49.0418 162.212 48.9018 161.545 48.6218C160.878 48.3285 160.352 47.9285 159.965 47.4218C159.578 46.9018 159.365 46.3085 159.325 45.6418H161.205C161.258 46.1885 161.512 46.6351 161.965 46.9818C162.432 47.3285 163.038 47.5018 163.785 47.5018C164.478 47.5018 165.025 47.3485 165.425 47.0418C165.825 46.7351 166.025 46.3485 166.025 45.8818C166.025 45.4018 165.812 45.0485 165.385 44.8218C164.958 44.5818 164.298 44.3485 163.405 44.1218C162.592 43.9085 161.925 43.6951 161.405 43.4818C160.898 43.2551 160.458 42.9285 160.085 42.5018C159.725 42.0618 159.545 41.4885 159.545 40.7818C159.545 40.2218 159.712 39.7085 160.045 39.2418C160.378 38.7751 160.852 38.4085 161.465 38.1418C162.078 37.8618 162.778 37.7218 163.565 37.7218C164.778 37.7218 165.758 38.0285 166.505 38.6418C167.252 39.2551 167.652 40.0951 167.705 41.1618H165.885C165.845 40.5885 165.612 40.1285 165.185 39.7818C164.772 39.4351 164.212 39.2618 163.505 39.2618C162.852 39.2618 162.332 39.4018 161.945 39.6818C161.558 39.9618 161.365 40.3285 161.365 40.7818C161.365 41.1418 161.478 41.4418 161.705 41.6818C161.945 41.9085 162.238 42.0951 162.585 42.2418C162.945 42.3751 163.438 42.5285 164.065 42.7018C164.852 42.9151 165.492 43.1285 165.985 43.3418C166.478 43.5418 166.898 43.8485 167.245 44.2618C167.605 44.6751 167.792 45.2151 167.805 45.8818C167.805 46.4818 167.638 47.0218 167.305 47.5018C166.972 47.9818 166.498 48.3618 165.885 48.6418C165.285 48.9085 164.592 49.0418 163.805 49.0418ZM172.154 39.4018V45.8618C172.154 46.3951 172.267 46.7751 172.494 47.0018C172.721 47.2151 173.114 47.3218 173.674 47.3218H175.014V48.8618H173.374C172.361 48.8618 171.601 48.6285 171.094 48.1618C170.587 47.6951 170.334 46.9285 170.334 45.8618V39.4018H168.914V37.9018H170.334V35.1418H172.154V37.9018H175.014V39.4018H172.154Z" fill="#848282"/>
<circle cx="46" cy="42.8618" r="30" fill="#B6EBE8"/>
<path d="M41.025 50.1118L46.25 52.9618V56.3618H37.5C36.1125 56.3618 35 55.2493 35 53.8618V33.8618C35 33.1988 35.2634 32.5629 35.7322 32.094C36.2011 31.6252 36.837 31.3618 37.5 31.3618H38.75V40.1118L41.875 38.2368L45 40.1118V31.3618H52.5C53.163 31.3618 53.7989 31.6252 54.2678 32.094C54.7366 32.5629 55 33.1988 55 33.8618V44.5368L53.125 43.5118L41.025 50.1118ZM60 50.1118L53.125 46.3618L46.25 50.1118L53.125 53.8618L60 50.1118ZM48.75 52.7243V55.2243L53.125 57.6118L57.5 55.2243V52.7243L53.125 55.1118L48.75 52.7243Z" fill="#0DA476"/>
</svg>
